<?xml version="1.0" encoding="iso-8859-1"?>
<!-- Generator: Adobe Illustrator 19.0.0, SVG Export Plug-In . SVG Version: 6.00 Build 0)  -->
<svg version="1.1" id="Capa_1" xmlns="http://www.w3.org/2000/svg" xmlns:xlink="http://www.w3.org/1999/xlink" x="0px" y="0px"
	 viewBox="0 0 496 496" style="enable-background:new 0 0 496 496;" xml:space="preserve">
<g>
	<g>
		<path d="M480,112H352v32h-32V80h-16V48h-16v-8c0-22.056-17.944-40-40-40c-22.056,0-40,17.944-40,40v8h-16v32h-16v64h-32v-32H16
			c-8.824,0-16,7.176-16,16v144c0,8.824,7.176,16,16,16h128v-32h24v64h32v19.36l-56,32V416h73.44l5.632,28.176
			C218.72,449.64,216,456.48,216,464c0,17.648,14.352,32,32,32s32-14.352,32-32c0-7.52-2.72-14.36-7.08-19.824L278.56,416H352
			v-44.64l-56-32V320h32v-64h24v32h128c8.824,0,16-7.176,16-16V128C496,119.176,488.824,112,480,112z M128,240h-16v-16h16V240z
			 M128,208h-16v-16h16V208z M128,176h-16v-16h16V176z M128,144H32v112h96v16H16V128h112V144z M80,208v-16h16v16H80z M96,224v16H80
			v-16H96z M80,176v-16h16v16H80z M48,208v-16h16v16H48z M64,224v16H48v-16H64z M48,176v-16h16v16H48z M224,40
			c0-13.232,10.768-24,24-24s24,10.768,24,24v8h-48V40z M208,64h80v16h-80V64z M269.752,96l-4.008,16H230.24l-4.008-16H269.752z
			 M192,96h17.76l7.992,32h60.496l7.992-32H304v64H192V96z M224,208v16h-16v-16H224z M208,192v-16h16v16H208z M216,320h64v16h-64
			V320z M248,304c-17.648,0-32-14.352-32-32s14.352-32,32-32s32,14.352,32,32S265.648,304,248,304z M256,208v16h-16v-16H256z
			 M240,192v-16h16v16H240z M272,224v-16h16v16H272z M272,192v-16h16v16H272z M168,240h-24v-80h32v16h16v48h-24V240z M184,304v-64
			h28.32c-7.632,8.504-12.32,19.696-12.32,32c0,12.304,4.688,23.496,12.32,32H184z M248,480c-8.824,0-16-7.176-16-16
			c0-8.824,7.176-16,16-16c8.824,0,16,7.176,16,16C264,472.824,256.824,480,248,480z M233.76,416h28.488l-3.6,17.96
			c-3.344-1.192-6.896-1.96-10.648-1.96s-7.304,0.768-10.648,1.96L233.76,416z M313.872,368H224v16h112v16H160v-16h48v-16h-25.88
			l28-16h75.752L313.872,368z M312,304h-28.32c7.632-8.504,12.32-19.696,12.32-32s-4.688-23.496-12.32-32H312V304z M352,240h-24v-16
			h-24v-48h16v-16h32V240z M368,160h16v16h-16V160z M368,192h16v16h-16V192z M368,224h16v16h-16V224z M480,272H368v-16h96V144h-96
			v-16h112V272z M416,192v16h-16v-16H416z M400,176v-16h16v16H400z M416,224v16h-16v-16H416z M448,192v16h-16v-16H448z M432,176v-16
			h16v16H432z M448,224v16h-16v-16H448z"/>
	</g>
</g>
<g>
</g>
<g>
</g>
<g>
</g>
<g>
</g>
<g>
</g>
<g>
</g>
<g>
</g>
<g>
</g>
<g>
</g>
<g>
</g>
<g>
</g>
<g>
</g>
<g>
</g>
<g>
</g>
<g>
</g>
</svg>
